<svg xmlns="http://www.w3.org/2000/svg" version="1.1" xmlns:xlink="http://www.w3.org/1999/xlink" xmlns:svgjs="http://svgjs.dev/svgjs" width="1440" height="400" preserveAspectRatio="none" viewBox="0 0 1440 400"><g mask="url(&quot;#SvgjsMask1917&quot;)" fill="none"><rect width="1440" height="400" x="0" y="0" fill="url(&quot;#SvgjsRadialGradient1918&quot;)"></rect><path d="M-104.76 339.67L-104.76 339.67" stroke="#132e65" stroke-width="1.5"></path><path d="M-104.76 339.67L42.37 246.09" stroke="#132e65" stroke-width="1.5"></path><path d="M-104.76 339.67L76.61 403.21" stroke="#132e65" stroke-width="1.5"></path><path d="M-104.76 339.67L-84.75 560" stroke="#132e65" stroke-width="1.5"></path><path d="M-104.76 339.67L40.7 531.21" stroke="#132e65" stroke-width="1.5"></path><path d="M-104.76 339.67L193.1 402.53" stroke="#132e65" stroke-width="1.5"></path><path d="M-104.76 339.67L198.01 241.2" stroke="#132e65" stroke-width="1.5"></path><path d="M-84.75 560L-84.75 560" stroke="#132e65" stroke-width="1.5"></path><path d="M-84.75 560L40.7 531.21" stroke="#132e65" stroke-width="1.5"></path><path d="M-84.75 560L76.61 403.21" stroke="#132e65" stroke-width="1.5"></path><path d="M-84.75 560L192.7 561.01" stroke="#132e65" stroke-width="1.5"></path><path d="M42.37 246.09L42.37 246.09" stroke="#132e65" stroke-width="1.5"></path><path d="M42.37 246.09L198.01 241.2" stroke="#132e65" stroke-width="1.5"></path><path d="M42.37 246.09L76.61 403.21" stroke="#132e65" stroke-width="1.5"></path><path d="M42.37 246.09L193.1 402.53" stroke="#132e65" stroke-width="1.5"></path><path d="M76.61 403.21L76.61 403.21" stroke="#132e65" stroke-width="1.5"></path><path d="M76.61 403.21L193.1 402.53" stroke="#132e65" stroke-width="1.5"></path><path d="M76.61 403.21L40.7 531.21" stroke="#132e65" stroke-width="1.5"></path><path d="M76.61 403.21L192.7 561.01" stroke="#132e65" stroke-width="1.5"></path><path d="M76.61 403.21L198.01 241.2" stroke="#132e65" stroke-width="1.5"></path><path d="M40.7 531.21L40.7 531.21" stroke="#132e65" stroke-width="1.5"></path><path d="M198.01 241.2L198.01 241.2" stroke="#132e65" stroke-width="1.5"></path><path d="M198.01 241.2L193.1 402.53" stroke="#132e65" stroke-width="1.5"></path><path d="M198.01 241.2L372.97 351.58" stroke="#132e65" stroke-width="1.5"></path><path d="M193.1 402.53L193.1 402.53" stroke="#132e65" stroke-width="1.5"></path><path d="M193.1 402.53L192.7 561.01" stroke="#132e65" stroke-width="1.5"></path><path d="M192.7 561.01L192.7 561.01" stroke="#132e65" stroke-width="1.5"></path><path d="M192.7 561.01L40.7 531.21" stroke="#132e65" stroke-width="1.5"></path><path d="M192.7 561.01L348 527.49" stroke="#132e65" stroke-width="1.5"></path><path d="M192.7 561.01L372.97 351.58" stroke="#132e65" stroke-width="1.5"></path><path d="M372.97 351.58L372.97 351.58" stroke="#132e65" stroke-width="1.5"></path><path d="M372.97 351.58L518.04 364.52" stroke="#132e65" stroke-width="1.5"></path><path d="M372.97 351.58L492.36 225.55" stroke="#132e65" stroke-width="1.5"></path><path d="M348 527.49L348 527.49" stroke="#132e65" stroke-width="1.5"></path><path d="M348 527.49L509.22 503.29" stroke="#132e65" stroke-width="1.5"></path><path d="M348 527.49L372.97 351.58" stroke="#132e65" stroke-width="1.5"></path><path d="M348 527.49L193.1 402.53" stroke="#132e65" stroke-width="1.5"></path><path d="M348 527.49L518.04 364.52" stroke="#132e65" stroke-width="1.5"></path><path d="M492.36 225.55L492.36 225.55" stroke="#132e65" stroke-width="1.5"></path><path d="M492.36 225.55L518.04 364.52" stroke="#132e65" stroke-width="1.5"></path><path d="M518.04 364.52L518.04 364.52" stroke="#132e65" stroke-width="1.5"></path><path d="M518.04 364.52L509.22 503.29" stroke="#132e65" stroke-width="1.5"></path><path d="M518.04 364.52L661.3 404.57" stroke="#132e65" stroke-width="1.5"></path><path d="M509.22 503.29L509.22 503.29" stroke="#132e65" stroke-width="1.5"></path><path d="M664.34 244.02L664.34 244.02" stroke="#132e65" stroke-width="1.5"></path><path d="M664.34 244.02L811.93 189.74" stroke="#132e65" stroke-width="1.5"></path><path d="M664.34 244.02L661.3 404.57" stroke="#132e65" stroke-width="1.5"></path><path d="M664.34 244.02L492.36 225.55" stroke="#132e65" stroke-width="1.5"></path><path d="M664.34 244.02L518.04 364.52" stroke="#132e65" stroke-width="1.5"></path><path d="M664.34 244.02L814.74 372.51" stroke="#132e65" stroke-width="1.5"></path><path d="M661.3 404.57L661.3 404.57" stroke="#132e65" stroke-width="1.5"></path><path d="M661.3 404.57L696.77 508.58" stroke="#132e65" stroke-width="1.5"></path><path d="M696.77 508.58L696.77 508.58" stroke="#132e65" stroke-width="1.5"></path><path d="M696.77 508.58L828.68 545.69" stroke="#132e65" stroke-width="1.5"></path><path d="M696.77 508.58L814.74 372.51" stroke="#132e65" stroke-width="1.5"></path><path d="M820.95 85.67L820.95 85.67" stroke="#132e65" stroke-width="1.5"></path><path d="M820.95 85.67L811.93 189.74" stroke="#132e65" stroke-width="1.5"></path><path d="M820.95 85.67L939.28 224.34" stroke="#132e65" stroke-width="1.5"></path><path d="M820.95 85.67L966.55 -50.35" stroke="#132e65" stroke-width="1.5"></path><path d="M820.95 85.67L664.34 244.02" stroke="#132e65" stroke-width="1.5"></path><path d="M820.95 85.67L814.74 372.51" stroke="#132e65" stroke-width="1.5"></path><path d="M811.93 189.74L811.93 189.74" stroke="#132e65" stroke-width="1.5"></path><path d="M811.93 189.74L939.28 224.34" stroke="#132e65" stroke-width="1.5"></path><path d="M811.93 189.74L814.74 372.51" stroke="#132e65" stroke-width="1.5"></path><path d="M811.93 189.74L991.41 349.78" stroke="#132e65" stroke-width="1.5"></path><path d="M814.74 372.51L814.74 372.51" stroke="#132e65" stroke-width="1.5"></path><path d="M814.74 372.51L661.3 404.57" stroke="#132e65" stroke-width="1.5"></path><path d="M814.74 372.51L828.68 545.69" stroke="#132e65" stroke-width="1.5"></path><path d="M828.68 545.69L828.68 545.69" stroke="#132e65" stroke-width="1.5"></path><path d="M828.68 545.69L971.15 529.86" stroke="#132e65" stroke-width="1.5"></path><path d="M966.55 -50.35L966.55 -50.35" stroke="#132e65" stroke-width="1.5"></path><path d="M966.55 -50.35L1128.12 -71.22" stroke="#132e65" stroke-width="1.5"></path><path d="M966.55 -50.35L1130.19 56.07" stroke="#132e65" stroke-width="1.5"></path><path d="M966.55 -50.35L939.28 224.34" stroke="#132e65" stroke-width="1.5"></path><path d="M966.55 -50.35L811.93 189.74" stroke="#132e65" stroke-width="1.5"></path><path d="M966.55 -50.35L1238.94 69.96" stroke="#132e65" stroke-width="1.5"></path><path d="M939.28 224.34L939.28 224.34" stroke="#132e65" stroke-width="1.5"></path><path d="M939.28 224.34L991.41 349.78" stroke="#132e65" stroke-width="1.5"></path><path d="M991.41 349.78L991.41 349.78" stroke="#132e65" stroke-width="1.5"></path><path d="M991.41 349.78L1091.42 391.96" stroke="#132e65" stroke-width="1.5"></path><path d="M971.15 529.86L971.15 529.86" stroke="#132e65" stroke-width="1.5"></path><path d="M971.15 529.86L1149.8 556.89" stroke="#132e65" stroke-width="1.5"></path><path d="M971.15 529.86L991.41 349.78" stroke="#132e65" stroke-width="1.5"></path><path d="M971.15 529.86L1091.42 391.96" stroke="#132e65" stroke-width="1.5"></path><path d="M971.15 529.86L814.74 372.51" stroke="#132e65" stroke-width="1.5"></path><path d="M971.15 529.86L696.77 508.58" stroke="#132e65" stroke-width="1.5"></path><path d="M1128.12 -71.22L1128.12 -71.22" stroke="#132e65" stroke-width="1.5"></path><path d="M1128.12 -71.22L1130.19 56.07" stroke="#132e65" stroke-width="1.5"></path><path d="M1128.12 -71.22L1300.72 -100.72" stroke="#132e65" stroke-width="1.5"></path><path d="M1128.12 -71.22L1238.94 69.96" stroke="#132e65" stroke-width="1.5"></path><path d="M1128.12 -71.22L1147.91 250.46" stroke="#132e65" stroke-width="1.5"></path><path d="M1130.19 56.07L1130.19 56.07" stroke="#132e65" stroke-width="1.5"></path><path d="M1130.19 56.07L1238.94 69.96" stroke="#132e65" stroke-width="1.5"></path><path d="M1130.19 56.07L1147.91 250.46" stroke="#132e65" stroke-width="1.5"></path><path d="M1130.19 56.07L1263.99 234.04" stroke="#132e65" stroke-width="1.5"></path><path d="M1130.19 56.07L1300.72 -100.72" stroke="#132e65" stroke-width="1.5"></path><path d="M1147.91 250.46L1147.91 250.46" stroke="#132e65" stroke-width="1.5"></path><path d="M1147.91 250.46L1263.99 234.04" stroke="#132e65" stroke-width="1.5"></path><path d="M1147.91 250.46L1091.42 391.96" stroke="#132e65" stroke-width="1.5"></path><path d="M1147.91 250.46L1238.34 387.67" stroke="#132e65" stroke-width="1.5"></path><path d="M1147.91 250.46L991.41 349.78" stroke="#132e65" stroke-width="1.5"></path><path d="M1091.42 391.96L1091.42 391.96" stroke="#132e65" stroke-width="1.5"></path><path d="M1149.8 556.89L1149.8 556.89" stroke="#132e65" stroke-width="1.5"></path><path d="M1149.8 556.89L1269.88 561.69" stroke="#132e65" stroke-width="1.5"></path><path d="M1300.72 -100.72L1300.72 -100.72" stroke="#132e65" stroke-width="1.5"></path><path d="M1300.72 -100.72L1238.94 69.96" stroke="#132e65" stroke-width="1.5"></path><path d="M1300.72 -100.72L1436.4 86.5" stroke="#132e65" stroke-width="1.5"></path><path d="M1300.72 -100.72L1569.29 -40.61" stroke="#132e65" stroke-width="1.5"></path><path d="M1300.72 -100.72L1550.63 79.07" stroke="#132e65" stroke-width="1.5"></path><path d="M1238.94 69.96L1238.94 69.96" stroke="#132e65" stroke-width="1.5"></path><path d="M1238.94 69.96L1263.99 234.04" stroke="#132e65" stroke-width="1.5"></path><path d="M1238.94 69.96L1436.4 86.5" stroke="#132e65" stroke-width="1.5"></path><path d="M1238.94 69.96L1147.91 250.46" stroke="#132e65" stroke-width="1.5"></path><path d="M1263.99 234.04L1263.99 234.04" stroke="#132e65" stroke-width="1.5"></path><path d="M1263.99 234.04L1238.34 387.67" stroke="#132e65" stroke-width="1.5"></path><path d="M1263.99 234.04L1425.51 190.21" stroke="#132e65" stroke-width="1.5"></path><path d="M1238.34 387.67L1238.34 387.67" stroke="#132e65" stroke-width="1.5"></path><path d="M1238.34 387.67L1091.42 391.96" stroke="#132e65" stroke-width="1.5"></path><path d="M1269.88 561.69L1269.88 561.69" stroke="#132e65" stroke-width="1.5"></path><path d="M1269.88 561.69L1238.34 387.67" stroke="#132e65" stroke-width="1.5"></path><path d="M1269.88 561.69L1460.04 514.33" stroke="#132e65" stroke-width="1.5"></path><path d="M1436.4 86.5L1436.4 86.5" stroke="#132e65" stroke-width="1.5"></path><path d="M1436.4 86.5L1425.51 190.21" stroke="#132e65" stroke-width="1.5"></path><path d="M1436.4 86.5L1550.63 79.07" stroke="#132e65" stroke-width="1.5"></path><path d="M1436.4 86.5L1537.73 225.1" stroke="#132e65" stroke-width="1.5"></path><path d="M1436.4 86.5L1569.29 -40.61" stroke="#132e65" stroke-width="1.5"></path><path d="M1436.4 86.5L1263.99 234.04" stroke="#132e65" stroke-width="1.5"></path><path d="M1425.51 190.21L1425.51 190.21" stroke="#132e65" stroke-width="1.5"></path><path d="M1425.51 190.21L1537.73 225.1" stroke="#132e65" stroke-width="1.5"></path><path d="M1425.51 190.21L1550.63 79.07" stroke="#132e65" stroke-width="1.5"></path><path d="M1425.51 190.21L1438.34 370.64" stroke="#132e65" stroke-width="1.5"></path><path d="M1425.51 190.21L1238.94 69.96" stroke="#132e65" stroke-width="1.5"></path><path d="M1438.34 370.64L1438.34 370.64" stroke="#132e65" stroke-width="1.5"></path><path d="M1438.34 370.64L1558.32 376.79" stroke="#132e65" stroke-width="1.5"></path><path d="M1438.34 370.64L1460.04 514.33" stroke="#132e65" stroke-width="1.5"></path><path d="M1438.34 370.64L1537.73 225.1" stroke="#132e65" stroke-width="1.5"></path><path d="M1438.34 370.64L1238.34 387.67" stroke="#132e65" stroke-width="1.5"></path><path d="M1438.34 370.64L1592.47 524.38" stroke="#132e65" stroke-width="1.5"></path><path d="M1460.04 514.33L1460.04 514.33" stroke="#132e65" stroke-width="1.5"></path><path d="M1460.04 514.33L1592.47 524.38" stroke="#132e65" stroke-width="1.5"></path><path d="M1460.04 514.33L1558.32 376.79" stroke="#132e65" stroke-width="1.5"></path><path d="M1460.04 514.33L1238.34 387.67" stroke="#132e65" stroke-width="1.5"></path><path d="M1460.04 514.33L1537.73 225.1" stroke="#132e65" stroke-width="1.5"></path><path d="M1569.29 -40.61L1569.29 -40.61" stroke="#132e65" stroke-width="1.5"></path><path d="M1569.29 -40.61L1550.63 79.07" stroke="#132e65" stroke-width="1.5"></path><path d="M1569.29 -40.61L1537.73 225.1" stroke="#132e65" stroke-width="1.5"></path><path d="M1569.29 -40.61L1425.51 190.21" stroke="#132e65" stroke-width="1.5"></path><path d="M1569.29 -40.61L1238.94 69.96" stroke="#132e65" stroke-width="1.5"></path><path d="M1550.63 79.07L1550.63 79.07" stroke="#132e65" stroke-width="1.5"></path><path d="M1537.73 225.1L1537.73 225.1" stroke="#132e65" stroke-width="1.5"></path><path d="M1537.73 225.1L1550.63 79.07" stroke="#132e65" stroke-width="1.5"></path><path d="M1537.73 225.1L1558.32 376.79" stroke="#132e65" stroke-width="1.5"></path><path d="M1558.32 376.79L1558.32 376.79" stroke="#132e65" stroke-width="1.5"></path><path d="M1558.32 376.79L1592.47 524.38" stroke="#132e65" stroke-width="1.5"></path><path d="M1558.32 376.79L1425.51 190.21" stroke="#132e65" stroke-width="1.5"></path><path d="M1558.32 376.79L1550.63 79.07" stroke="#132e65" stroke-width="1.5"></path><path d="M1592.47 524.38L1592.47 524.38" stroke="#132e65" stroke-width="1.5"></path><path d="M1592.47 524.38L1537.73 225.1" stroke="#132e65" stroke-width="1.5"></path><circle r="5" cx="-104.76" cy="339.67" fill="#132e65"></circle><circle r="5" cx="-84.75" cy="560" fill="#132e65"></circle><circle r="5" cx="42.37" cy="246.09" fill="#132e65"></circle><circle r="5" cx="76.61" cy="403.21" fill="#132e65"></circle><circle r="5" cx="40.7" cy="531.21" fill="#132e65"></circle><circle r="5" cx="198.01" cy="241.2" fill="#132e65"></circle><circle r="5" cx="193.1" cy="402.53" fill="#132e65"></circle><circle r="5" cx="192.7" cy="561.01" fill="#132e65"></circle><circle r="5" cx="372.97" cy="351.58" fill="#132e65"></circle><circle r="5" cx="348" cy="527.49" fill="#132e65"></circle><circle r="5" cx="492.36" cy="225.55" fill="#132e65"></circle><circle r="5" cx="518.04" cy="364.52" fill="#132e65"></circle><circle r="5" cx="509.22" cy="503.29" fill="#132e65"></circle><circle r="5" cx="664.34" cy="244.02" fill="#132e65"></circle><circle r="5" cx="661.3" cy="404.57" fill="#132e65"></circle><circle r="5" cx="696.77" cy="508.58" fill="#132e65"></circle><circle r="5" cx="820.95" cy="85.67" fill="#132e65"></circle><circle r="5" cx="811.93" cy="189.74" fill="#132e65"></circle><circle r="5" cx="814.74" cy="372.51" fill="#132e65"></circle><circle r="5" cx="828.68" cy="545.69" fill="#132e65"></circle><circle r="5" cx="966.55" cy="-50.35" fill="#132e65"></circle><circle r="5" cx="939.28" cy="224.34" fill="#132e65"></circle><circle r="5" cx="991.41" cy="349.78" fill="#132e65"></circle><circle r="5" cx="971.15" cy="529.86" fill="#132e65"></circle><circle r="5" cx="1128.12" cy="-71.22" fill="#132e65"></circle><circle r="5" cx="1130.19" cy="56.07" fill="#132e65"></circle><circle r="5" cx="1147.91" cy="250.46" fill="#132e65"></circle><circle r="5" cx="1091.42" cy="391.96" fill="#132e65"></circle><circle r="5" cx="1149.8" cy="556.89" fill="#132e65"></circle><circle r="5" cx="1300.72" cy="-100.72" fill="#132e65"></circle><circle r="5" cx="1238.94" cy="69.96" fill="#132e65"></circle><circle r="5" cx="1263.99" cy="234.04" fill="#132e65"></circle><circle r="5" cx="1238.34" cy="387.67" fill="#132e65"></circle><circle r="5" cx="1269.88" cy="561.69" fill="#132e65"></circle><circle r="5" cx="1436.4" cy="86.5" fill="#132e65"></circle><circle r="5" cx="1425.51" cy="190.21" fill="#132e65"></circle><circle r="5" cx="1438.34" cy="370.64" fill="#132e65"></circle><circle r="5" cx="1460.04" cy="514.33" fill="#132e65"></circle><circle r="5" cx="1569.29" cy="-40.61" fill="#132e65"></circle><circle r="5" cx="1550.63" cy="79.07" fill="#132e65"></circle><circle r="5" cx="1537.73" cy="225.1" fill="#132e65"></circle><circle r="5" cx="1558.32" cy="376.79" fill="#132e65"></circle><circle r="5" cx="1592.47" cy="524.38" fill="#132e65"></circle><path d="M90.47 348.41L90.47 348.41" stroke="hsl(228.5, 77.2%, 51.5%)" stroke-width="1.5"></path><path d="M90.47 348.41L247.81 347.75" stroke="hsl(228.5, 77.2%, 51.5%)" stroke-width="1.5"></path><path d="M90.47 348.41L-82.13 356.55" stroke="hsl(228.5, 77.2%, 51.5%)" stroke-width="1.5"></path><path d="M90.47 348.41L80.83 529.98" stroke="hsl(228.5, 77.2%, 51.5%)" stroke-width="1.5"></path><path d="M90.47 348.41L190.84 518.84" stroke="hsl(228.5, 77.2%, 51.5%)" stroke-width="1.5"></path><path d="M90.47 348.41L-100.59 489.44" stroke="hsl(228.5, 77.2%, 51.5%)" stroke-width="1.5"></path><path d="M90.47 348.41L405.66 403.08" stroke="hsl(228.5, 77.2%, 51.5%)" stroke-width="1.5"></path><path d="M190.84 518.84L190.84 518.84" stroke="hsl(228.5, 77.2%, 51.5%)" stroke-width="1.5"></path><path d="M190.84 518.84L80.83 529.98" stroke="hsl(228.5, 77.2%, 51.5%)" stroke-width="1.5"></path><path d="M190.84 518.84L247.81 347.75" stroke="hsl(228.5, 77.2%, 51.5%)" stroke-width="1.5"></path><path d="M952.21 243.94L952.21 243.94" stroke="hsl(228.5, 77.2%, 51.5%)" stroke-width="1.5"></path><path d="M952.21 243.94L967.84 347.62" stroke="hsl(228.5, 77.2%, 51.5%)" stroke-width="1.5"></path><path d="M952.21 243.94L1111.57 253.06" stroke="hsl(228.5, 77.2%, 51.5%)" stroke-width="1.5"></path><path d="M952.21 243.94L813.72 345.11" stroke="hsl(228.5, 77.2%, 51.5%)" stroke-width="1.5"></path><path d="M1263.96 69.88L1263.96 69.88" stroke="hsl(228.5, 77.2%, 51.5%)" stroke-width="1.5"></path><path d="M1263.96 69.88L1143.01 110.04" stroke="hsl(228.5, 77.2%, 51.5%)" stroke-width="1.5"></path><path d="M1263.96 69.88L1304.57 -86.28" stroke="hsl(228.5, 77.2%, 51.5%)" stroke-width="1.5"></path><path d="M1263.96 69.88L1432.76 66.65" stroke="hsl(228.5, 77.2%, 51.5%)" stroke-width="1.5"></path><path d="M1261.03 252.39L1261.03 252.39" stroke="hsl(228.5, 77.2%, 51.5%)" stroke-width="1.5"></path><path d="M1261.03 252.39L1260.16 364.52" stroke="hsl(228.5, 77.2%, 51.5%)" stroke-width="1.5"></path><path d="M1261.03 252.39L1155.57 342.58" stroke="hsl(228.5, 77.2%, 51.5%)" stroke-width="1.5"></path><path d="M1261.03 252.39L1111.57 253.06" stroke="hsl(228.5, 77.2%, 51.5%)" stroke-width="1.5"></path><path d="M1261.03 252.39L1263.96 69.88" stroke="hsl(228.5, 77.2%, 51.5%)" stroke-width="1.5"></path><path d="M1261.03 252.39L1143.01 110.04" stroke="hsl(228.5, 77.2%, 51.5%)" stroke-width="1.5"></path><path d="M1261.03 252.39L1441.82 209.35" stroke="hsl(228.5, 77.2%, 51.5%)" stroke-width="1.5"></path><path d="M1441.82 209.35L1441.82 209.35" stroke="hsl(228.5, 77.2%, 51.5%)" stroke-width="1.5"></path><path d="M1441.82 209.35L1567 220.82" stroke="hsl(228.5, 77.2%, 51.5%)" stroke-width="1.5"></path><path d="M1441.82 209.35L1432.76 66.65" stroke="hsl(228.5, 77.2%, 51.5%)" stroke-width="1.5"></path><path d="M1441.82 209.35L1459.94 358.01" stroke="hsl(228.5, 77.2%, 51.5%)" stroke-width="1.5"></path><path d="M1441.82 209.35L1607.02 110.65" stroke="hsl(228.5, 77.2%, 51.5%)" stroke-width="1.5"></path><path d="M1441.82 209.35L1575.95 378.4" stroke="hsl(228.5, 77.2%, 51.5%)" stroke-width="1.5"></path><path d="M1541.75 -53.85L1541.75 -53.85" stroke="hsl(228.5, 77.2%, 51.5%)" stroke-width="1.5"></path><path d="M1541.75 -53.85L1433.35 -49.85" stroke="hsl(228.5, 77.2%, 51.5%)" stroke-width="1.5"></path><path d="M1541.75 -53.85L1432.76 66.65" stroke="hsl(228.5, 77.2%, 51.5%)" stroke-width="1.5"></path><path d="M1541.75 -53.85L1607.02 110.65" stroke="hsl(228.5, 77.2%, 51.5%)" stroke-width="1.5"></path><path d="M1541.75 -53.85L1304.57 -86.28" stroke="hsl(228.5, 77.2%, 51.5%)" stroke-width="1.5"></path><path d="M-82.13 356.55L-82.13 356.55" stroke="hsl(228.5, 77.2%, 51.5%)" stroke-width="1.5"></path><path d="M-82.13 356.55L-100.59 489.44" stroke="hsl(228.5, 77.2%, 51.5%)" stroke-width="1.5"></path><path d="M-100.59 489.44L-100.59 489.44" stroke="hsl(228.5, 77.2%, 51.5%)" stroke-width="1.5"></path><path d="M-100.59 489.44L80.83 529.98" stroke="hsl(228.5, 77.2%, 51.5%)" stroke-width="1.5"></path><path d="M80.83 529.98L80.83 529.98" stroke="hsl(228.5, 77.2%, 51.5%)" stroke-width="1.5"></path><path d="M80.83 529.98L-82.13 356.55" stroke="hsl(228.5, 77.2%, 51.5%)" stroke-width="1.5"></path><path d="M247.81 347.75L247.81 347.75" stroke="hsl(228.5, 77.2%, 51.5%)" stroke-width="1.5"></path><path d="M247.81 347.75L405.66 403.08" stroke="hsl(228.5, 77.2%, 51.5%)" stroke-width="1.5"></path><path d="M247.81 347.75L80.83 529.98" stroke="hsl(228.5, 77.2%, 51.5%)" stroke-width="1.5"></path><path d="M405.66 403.08L405.66 403.08" stroke="hsl(228.5, 77.2%, 51.5%)" stroke-width="1.5"></path><path d="M405.66 403.08L523.46 407.97" stroke="hsl(228.5, 77.2%, 51.5%)" stroke-width="1.5"></path><path d="M405.66 403.08L541.04 554.24" stroke="hsl(228.5, 77.2%, 51.5%)" stroke-width="1.5"></path><path d="M523.46 407.97L523.46 407.97" stroke="hsl(228.5, 77.2%, 51.5%)" stroke-width="1.5"></path><path d="M523.46 407.97L666.8 391.19" stroke="hsl(228.5, 77.2%, 51.5%)" stroke-width="1.5"></path><path d="M541.04 554.24L541.04 554.24" stroke="hsl(228.5, 77.2%, 51.5%)" stroke-width="1.5"></path><path d="M541.04 554.24L649.02 532.96" stroke="hsl(228.5, 77.2%, 51.5%)" stroke-width="1.5"></path><path d="M541.04 554.24L523.46 407.97" stroke="hsl(228.5, 77.2%, 51.5%)" stroke-width="1.5"></path><path d="M541.04 554.24L666.8 391.19" stroke="hsl(228.5, 77.2%, 51.5%)" stroke-width="1.5"></path><path d="M541.04 554.24L822.16 530" stroke="hsl(228.5, 77.2%, 51.5%)" stroke-width="1.5"></path><path d="M666.8 391.19L666.8 391.19" stroke="hsl(228.5, 77.2%, 51.5%)" stroke-width="1.5"></path><path d="M666.8 391.19L649.02 532.96" stroke="hsl(228.5, 77.2%, 51.5%)" stroke-width="1.5"></path><path d="M649.02 532.96L649.02 532.96" stroke="hsl(228.5, 77.2%, 51.5%)" stroke-width="1.5"></path><path d="M813.72 345.11L813.72 345.11" stroke="hsl(228.5, 77.2%, 51.5%)" stroke-width="1.5"></path><path d="M813.72 345.11L666.8 391.19" stroke="hsl(228.5, 77.2%, 51.5%)" stroke-width="1.5"></path><path d="M813.72 345.11L967.84 347.62" stroke="hsl(228.5, 77.2%, 51.5%)" stroke-width="1.5"></path><path d="M813.72 345.11L822.16 530" stroke="hsl(228.5, 77.2%, 51.5%)" stroke-width="1.5"></path><path d="M822.16 530L822.16 530" stroke="hsl(228.5, 77.2%, 51.5%)" stroke-width="1.5"></path><path d="M822.16 530L980.51 520.42" stroke="hsl(228.5, 77.2%, 51.5%)" stroke-width="1.5"></path><path d="M822.16 530L649.02 532.96" stroke="hsl(228.5, 77.2%, 51.5%)" stroke-width="1.5"></path><path d="M967.84 347.62L967.84 347.62" stroke="hsl(228.5, 77.2%, 51.5%)" stroke-width="1.5"></path><path d="M967.84 347.62L1111.57 253.06" stroke="hsl(228.5, 77.2%, 51.5%)" stroke-width="1.5"></path><path d="M967.84 347.62L980.51 520.42" stroke="hsl(228.5, 77.2%, 51.5%)" stroke-width="1.5"></path><path d="M967.84 347.62L1155.57 342.58" stroke="hsl(228.5, 77.2%, 51.5%)" stroke-width="1.5"></path><path d="M967.84 347.62L1122.63 510.41" stroke="hsl(228.5, 77.2%, 51.5%)" stroke-width="1.5"></path><path d="M980.51 520.42L980.51 520.42" stroke="hsl(228.5, 77.2%, 51.5%)" stroke-width="1.5"></path><path d="M980.51 520.42L1122.63 510.41" stroke="hsl(228.5, 77.2%, 51.5%)" stroke-width="1.5"></path><path d="M980.51 520.42L813.72 345.11" stroke="hsl(228.5, 77.2%, 51.5%)" stroke-width="1.5"></path><path d="M980.51 520.42L1155.57 342.58" stroke="hsl(228.5, 77.2%, 51.5%)" stroke-width="1.5"></path><path d="M980.51 520.42L952.21 243.94" stroke="hsl(228.5, 77.2%, 51.5%)" stroke-width="1.5"></path><path d="M1143.01 110.04L1143.01 110.04" stroke="hsl(228.5, 77.2%, 51.5%)" stroke-width="1.5"></path><path d="M1143.01 110.04L1111.57 253.06" stroke="hsl(228.5, 77.2%, 51.5%)" stroke-width="1.5"></path><path d="M1111.57 253.06L1111.57 253.06" stroke="hsl(228.5, 77.2%, 51.5%)" stroke-width="1.5"></path><path d="M1111.57 253.06L1155.57 342.58" stroke="hsl(228.5, 77.2%, 51.5%)" stroke-width="1.5"></path><path d="M1155.57 342.58L1155.57 342.58" stroke="hsl(228.5, 77.2%, 51.5%)" stroke-width="1.5"></path><path d="M1155.57 342.58L1260.16 364.52" stroke="hsl(228.5, 77.2%, 51.5%)" stroke-width="1.5"></path><path d="M1155.57 342.58L1122.63 510.41" stroke="hsl(228.5, 77.2%, 51.5%)" stroke-width="1.5"></path><path d="M1122.63 510.41L1122.63 510.41" stroke="hsl(228.5, 77.2%, 51.5%)" stroke-width="1.5"></path><path d="M1122.63 510.41L1301.36 512.28" stroke="hsl(228.5, 77.2%, 51.5%)" stroke-width="1.5"></path><path d="M1122.63 510.41L1260.16 364.52" stroke="hsl(228.5, 77.2%, 51.5%)" stroke-width="1.5"></path><path d="M1122.63 510.41L1111.57 253.06" stroke="hsl(228.5, 77.2%, 51.5%)" stroke-width="1.5"></path><path d="M1304.57 -86.28L1304.57 -86.28" stroke="hsl(228.5, 77.2%, 51.5%)" stroke-width="1.5"></path><path d="M1304.57 -86.28L1433.35 -49.85" stroke="hsl(228.5, 77.2%, 51.5%)" stroke-width="1.5"></path><path d="M1304.57 -86.28L1432.76 66.65" stroke="hsl(228.5, 77.2%, 51.5%)" stroke-width="1.5"></path><path d="M1260.16 364.52L1260.16 364.52" stroke="hsl(228.5, 77.2%, 51.5%)" stroke-width="1.5"></path><path d="M1260.16 364.52L1301.36 512.28" stroke="hsl(228.5, 77.2%, 51.5%)" stroke-width="1.5"></path><path d="M1301.36 512.28L1301.36 512.28" stroke="hsl(228.5, 77.2%, 51.5%)" stroke-width="1.5"></path><path d="M1301.36 512.28L1397.92 555.31" stroke="hsl(228.5, 77.2%, 51.5%)" stroke-width="1.5"></path><path d="M1301.36 512.28L1459.94 358.01" stroke="hsl(228.5, 77.2%, 51.5%)" stroke-width="1.5"></path><path d="M1301.36 512.28L1155.57 342.58" stroke="hsl(228.5, 77.2%, 51.5%)" stroke-width="1.5"></path><path d="M1433.35 -49.85L1433.35 -49.85" stroke="hsl(228.5, 77.2%, 51.5%)" stroke-width="1.5"></path><path d="M1433.35 -49.85L1432.76 66.65" stroke="hsl(228.5, 77.2%, 51.5%)" stroke-width="1.5"></path><path d="M1432.76 66.65L1432.76 66.65" stroke="hsl(228.5, 77.2%, 51.5%)" stroke-width="1.5"></path><path d="M1459.94 358.01L1459.94 358.01" stroke="hsl(228.5, 77.2%, 51.5%)" stroke-width="1.5"></path><path d="M1459.94 358.01L1575.95 378.4" stroke="hsl(228.5, 77.2%, 51.5%)" stroke-width="1.5"></path><path d="M1397.92 555.31L1397.92 555.31" stroke="hsl(228.5, 77.2%, 51.5%)" stroke-width="1.5"></path><path d="M1397.92 555.31L1599.95 529.77" stroke="hsl(228.5, 77.2%, 51.5%)" stroke-width="1.5"></path><path d="M1397.92 555.31L1459.94 358.01" stroke="hsl(228.5, 77.2%, 51.5%)" stroke-width="1.5"></path><path d="M1397.92 555.31L1260.16 364.52" stroke="hsl(228.5, 77.2%, 51.5%)" stroke-width="1.5"></path><path d="M1397.92 555.31L1575.95 378.4" stroke="hsl(228.5, 77.2%, 51.5%)" stroke-width="1.5"></path><path d="M1397.92 555.31L1122.63 510.41" stroke="hsl(228.5, 77.2%, 51.5%)" stroke-width="1.5"></path><path d="M1607.02 110.65L1607.02 110.65" stroke="hsl(228.5, 77.2%, 51.5%)" stroke-width="1.5"></path><path d="M1607.02 110.65L1567 220.82" stroke="hsl(228.5, 77.2%, 51.5%)" stroke-width="1.5"></path><path d="M1607.02 110.65L1432.76 66.65" stroke="hsl(228.5, 77.2%, 51.5%)" stroke-width="1.5"></path><path d="M1567 220.82L1567 220.82" stroke="hsl(228.5, 77.2%, 51.5%)" stroke-width="1.5"></path><path d="M1567 220.82L1575.95 378.4" stroke="hsl(228.5, 77.2%, 51.5%)" stroke-width="1.5"></path><path d="M1567 220.82L1459.94 358.01" stroke="hsl(228.5, 77.2%, 51.5%)" stroke-width="1.5"></path><path d="M1567 220.82L1432.76 66.65" stroke="hsl(228.5, 77.2%, 51.5%)" stroke-width="1.5"></path><path d="M1567 220.82L1541.75 -53.85" stroke="hsl(228.5, 77.2%, 51.5%)" stroke-width="1.5"></path><path d="M1575.95 378.4L1575.95 378.4" stroke="hsl(228.5, 77.2%, 51.5%)" stroke-width="1.5"></path><path d="M1575.95 378.4L1599.95 529.77" stroke="hsl(228.5, 77.2%, 51.5%)" stroke-width="1.5"></path><path d="M1599.95 529.77L1599.95 529.77" stroke="hsl(228.5, 77.2%, 51.5%)" stroke-width="1.5"></path><circle r="25" cx="90.47" cy="348.41" fill="url(&quot;#SvgjsRadialGradient1919&quot;)"></circle><circle r="25" cx="190.84" cy="518.84" fill="url(&quot;#SvgjsRadialGradient1919&quot;)"></circle><circle r="25" cx="952.21" cy="243.94" fill="url(&quot;#SvgjsRadialGradient1919&quot;)"></circle><circle r="25" cx="1263.96" cy="69.88" fill="url(&quot;#SvgjsRadialGradient1919&quot;)"></circle><circle r="25" cx="1261.03" cy="252.39" fill="url(&quot;#SvgjsRadialGradient1919&quot;)"></circle><circle r="25" cx="1441.82" cy="209.35" fill="url(&quot;#SvgjsRadialGradient1919&quot;)"></circle><circle r="25" cx="1541.75" cy="-53.85" fill="url(&quot;#SvgjsRadialGradient1919&quot;)"></circle><circle r="5" cx="-82.13" cy="356.55" fill="#8b9ad9"></circle><circle r="5" cx="-100.59" cy="489.44" fill="#8b9ad9"></circle><circle r="5" cx="80.83" cy="529.98" fill="#8b9ad9"></circle><circle r="5" cx="247.81" cy="347.75" fill="#8b9ad9"></circle><circle r="5" cx="405.66" cy="403.08" fill="#8b9ad9"></circle><circle r="5" cx="523.46" cy="407.97" fill="#8b9ad9"></circle><circle r="5" cx="541.04" cy="554.24" fill="#8b9ad9"></circle><circle r="5" cx="666.8" cy="391.19" fill="#8b9ad9"></circle><circle r="5" cx="649.02" cy="532.96" fill="#8b9ad9"></circle><circle r="5" cx="813.72" cy="345.11" fill="#8b9ad9"></circle><circle r="5" cx="822.16" cy="530" fill="#8b9ad9"></circle><circle r="5" cx="967.84" cy="347.62" fill="#8b9ad9"></circle><circle r="5" cx="980.51" cy="520.42" fill="#8b9ad9"></circle><circle r="5" cx="1143.01" cy="110.04" fill="#8b9ad9"></circle><circle r="5" cx="1111.57" cy="253.06" fill="#8b9ad9"></circle><circle r="5" cx="1155.57" cy="342.58" fill="#8b9ad9"></circle><circle r="5" cx="1122.63" cy="510.41" fill="#8b9ad9"></circle><circle r="5" cx="1304.57" cy="-86.28" fill="#8b9ad9"></circle><circle r="5" cx="1260.16" cy="364.52" fill="#8b9ad9"></circle><circle r="5" cx="1301.36" cy="512.28" fill="#8b9ad9"></circle><circle r="5" cx="1433.35" cy="-49.85" fill="#8b9ad9"></circle><circle r="5" cx="1432.76" cy="66.65" fill="#8b9ad9"></circle><circle r="5" cx="1459.94" cy="358.01" fill="#8b9ad9"></circle><circle r="5" cx="1397.92" cy="555.31" fill="#8b9ad9"></circle><circle r="5" cx="1607.02" cy="110.65" fill="#8b9ad9"></circle><circle r="5" cx="1567" cy="220.82" fill="#8b9ad9"></circle><circle r="5" cx="1575.95" cy="378.4" fill="#8b9ad9"></circle><circle r="5" cx="1599.95" cy="529.77" fill="#8b9ad9"></circle></g><defs><mask id="SvgjsMask1917"><rect width="1440" height="400" fill="#ffffff"></rect></mask><radialGradient cx="0%" cy="100%" r="1494.52" gradientUnits="userSpaceOnUse" id="SvgjsRadialGradient1918"><stop stop-color="rgba(14, 42, 71, 1)" offset="0.56"></stop><stop stop-color="#00459e" offset="1"></stop></radialGradient><radialGradient id="SvgjsRadialGradient1919"><stop stop-color="#ffffff" offset="0.1"></stop><stop stop-color="#1735b3" offset="0.2"></stop><stop stop-color="rgba(23, 53, 179, 0)" offset="1"></stop></radialGradient></defs></svg>