<svg xmlns="http://www.w3.org/2000/svg" version="1.1" xmlns:xlink="http://www.w3.org/1999/xlink" xmlns:svgjs="http://svgjs.dev/svgjs" width="1440" height="400" preserveAspectRatio="none" viewBox="0 0 1440 400"><g mask="url(&quot;#SvgjsMask2005&quot;)" fill="none"><rect width="1440" height="400" x="0" y="0" fill="url(&quot;#SvgjsRadialGradient2006&quot;)"></rect><path d="M-91.54 364.67L-91.54 364.67" stroke="#132e65" stroke-width="1.5"></path><path d="M-91.54 364.67L44.08 390.82" stroke="#132e65" stroke-width="1.5"></path><path d="M-91.54 364.67L-53.18 538.25" stroke="#132e65" stroke-width="1.5"></path><path d="M-91.54 364.67L77.08 254.56" stroke="#132e65" stroke-width="1.5"></path><path d="M-91.54 364.67L106.8 539.66" stroke="#132e65" stroke-width="1.5"></path><path d="M-91.54 364.67L219.68 375.04" stroke="#132e65" stroke-width="1.5"></path><path d="M-91.54 364.67L206.94 499.01" stroke="#132e65" stroke-width="1.5"></path><path d="M-53.18 538.25L-53.18 538.25" stroke="#132e65" stroke-width="1.5"></path><path d="M-53.18 538.25L106.8 539.66" stroke="#132e65" stroke-width="1.5"></path><path d="M-53.18 538.25L44.08 390.82" stroke="#132e65" stroke-width="1.5"></path><path d="M-53.18 538.25L206.94 499.01" stroke="#132e65" stroke-width="1.5"></path><path d="M-53.18 538.25L77.08 254.56" stroke="#132e65" stroke-width="1.5"></path><path d="M-53.18 538.25L219.68 375.04" stroke="#132e65" stroke-width="1.5"></path><path d="M77.08 254.56L77.08 254.56" stroke="#132e65" stroke-width="1.5"></path><path d="M77.08 254.56L44.08 390.82" stroke="#132e65" stroke-width="1.5"></path><path d="M77.08 254.56L240.19 251.56" stroke="#132e65" stroke-width="1.5"></path><path d="M77.08 254.56L219.68 375.04" stroke="#132e65" stroke-width="1.5"></path><path d="M44.08 390.82L44.08 390.82" stroke="#132e65" stroke-width="1.5"></path><path d="M44.08 390.82L106.8 539.66" stroke="#132e65" stroke-width="1.5"></path><path d="M44.08 390.82L219.68 375.04" stroke="#132e65" stroke-width="1.5"></path><path d="M44.08 390.82L206.94 499.01" stroke="#132e65" stroke-width="1.5"></path><path d="M106.8 539.66L106.8 539.66" stroke="#132e65" stroke-width="1.5"></path><path d="M106.8 539.66L206.94 499.01" stroke="#132e65" stroke-width="1.5"></path><path d="M240.19 251.56L240.19 251.56" stroke="#132e65" stroke-width="1.5"></path><path d="M240.19 251.56L219.68 375.04" stroke="#132e65" stroke-width="1.5"></path><path d="M240.19 251.56L381.14 262.02" stroke="#132e65" stroke-width="1.5"></path><path d="M240.19 251.56L394.33 399.51" stroke="#132e65" stroke-width="1.5"></path><path d="M240.19 251.56L44.08 390.82" stroke="#132e65" stroke-width="1.5"></path><path d="M219.68 375.04L219.68 375.04" stroke="#132e65" stroke-width="1.5"></path><path d="M219.68 375.04L206.94 499.01" stroke="#132e65" stroke-width="1.5"></path><path d="M206.94 499.01L206.94 499.01" stroke="#132e65" stroke-width="1.5"></path><path d="M206.94 499.01L394.33 399.51" stroke="#132e65" stroke-width="1.5"></path><path d="M206.94 499.01L240.19 251.56" stroke="#132e65" stroke-width="1.5"></path><path d="M381.14 262.02L381.14 262.02" stroke="#132e65" stroke-width="1.5"></path><path d="M381.14 262.02L394.33 399.51" stroke="#132e65" stroke-width="1.5"></path><path d="M381.14 262.02L548.18 213.11" stroke="#132e65" stroke-width="1.5"></path><path d="M381.14 262.02L504.18 396.69" stroke="#132e65" stroke-width="1.5"></path><path d="M381.14 262.02L219.68 375.04" stroke="#132e65" stroke-width="1.5"></path><path d="M394.33 399.51L394.33 399.51" stroke="#132e65" stroke-width="1.5"></path><path d="M394.33 399.51L504.18 396.69" stroke="#132e65" stroke-width="1.5"></path><path d="M548.18 213.11L548.18 213.11" stroke="#132e65" stroke-width="1.5"></path><path d="M548.18 213.11L682.7 229.69" stroke="#132e65" stroke-width="1.5"></path><path d="M548.18 213.11L648.42 368.38" stroke="#132e65" stroke-width="1.5"></path><path d="M548.18 213.11L504.18 396.69" stroke="#132e65" stroke-width="1.5"></path><path d="M504.18 396.69L504.18 396.69" stroke="#132e65" stroke-width="1.5"></path><path d="M504.18 396.69L520.46 513.29" stroke="#132e65" stroke-width="1.5"></path><path d="M504.18 396.69L648.42 368.38" stroke="#132e65" stroke-width="1.5"></path><path d="M520.46 513.29L520.46 513.29" stroke="#132e65" stroke-width="1.5"></path><path d="M682.7 229.69L682.7 229.69" stroke="#132e65" stroke-width="1.5"></path><path d="M682.7 229.69L648.42 368.38" stroke="#132e65" stroke-width="1.5"></path><path d="M648.42 368.38L648.42 368.38" stroke="#132e65" stroke-width="1.5"></path><path d="M648.42 368.38L793.2 393.11" stroke="#132e65" stroke-width="1.5"></path><path d="M648.42 368.38L669.17 542.67" stroke="#132e65" stroke-width="1.5"></path><path d="M669.17 542.67L669.17 542.67" stroke="#132e65" stroke-width="1.5"></path><path d="M669.17 542.67L520.46 513.29" stroke="#132e65" stroke-width="1.5"></path><path d="M669.17 542.67L843.56 541.25" stroke="#132e65" stroke-width="1.5"></path><path d="M669.17 542.67L793.2 393.11" stroke="#132e65" stroke-width="1.5"></path><path d="M669.17 542.67L504.18 396.69" stroke="#132e65" stroke-width="1.5"></path><path d="M793.2 393.11L793.2 393.11" stroke="#132e65" stroke-width="1.5"></path><path d="M793.2 393.11L843.56 541.25" stroke="#132e65" stroke-width="1.5"></path><path d="M793.2 393.11L979.09 340.38" stroke="#132e65" stroke-width="1.5"></path><path d="M793.2 393.11L682.7 229.69" stroke="#132e65" stroke-width="1.5"></path><path d="M793.2 393.11L940.12 552.25" stroke="#132e65" stroke-width="1.5"></path><path d="M843.56 541.25L843.56 541.25" stroke="#132e65" stroke-width="1.5"></path><path d="M843.56 541.25L940.12 552.25" stroke="#132e65" stroke-width="1.5"></path><path d="M945 -68.75L945 -68.75" stroke="#132e65" stroke-width="1.5"></path><path d="M945 -68.75L996.89 81.11" stroke="#132e65" stroke-width="1.5"></path><path d="M945 -68.75L1147.49 -88.8" stroke="#132e65" stroke-width="1.5"></path><path d="M945 -68.75L1140.22 41.52" stroke="#132e65" stroke-width="1.5"></path><path d="M945 -68.75L967.64 195.93" stroke="#132e65" stroke-width="1.5"></path><path d="M945 -68.75L1088.52 241.47" stroke="#132e65" stroke-width="1.5"></path><path d="M945 -68.75L1285.96 -99.55" stroke="#132e65" stroke-width="1.5"></path><path d="M996.89 81.11L996.89 81.11" stroke="#132e65" stroke-width="1.5"></path><path d="M996.89 81.11L967.64 195.93" stroke="#132e65" stroke-width="1.5"></path><path d="M996.89 81.11L1140.22 41.52" stroke="#132e65" stroke-width="1.5"></path><path d="M967.64 195.93L967.64 195.93" stroke="#132e65" stroke-width="1.5"></path><path d="M967.64 195.93L1088.52 241.47" stroke="#132e65" stroke-width="1.5"></path><path d="M967.64 195.93L979.09 340.38" stroke="#132e65" stroke-width="1.5"></path><path d="M967.64 195.93L1140.22 41.52" stroke="#132e65" stroke-width="1.5"></path><path d="M967.64 195.93L1123.72 405.41" stroke="#132e65" stroke-width="1.5"></path><path d="M979.09 340.38L979.09 340.38" stroke="#132e65" stroke-width="1.5"></path><path d="M979.09 340.38L1088.52 241.47" stroke="#132e65" stroke-width="1.5"></path><path d="M979.09 340.38L1123.72 405.41" stroke="#132e65" stroke-width="1.5"></path><path d="M979.09 340.38L940.12 552.25" stroke="#132e65" stroke-width="1.5"></path><path d="M940.12 552.25L940.12 552.25" stroke="#132e65" stroke-width="1.5"></path><path d="M1147.49 -88.8L1147.49 -88.8" stroke="#132e65" stroke-width="1.5"></path><path d="M1147.49 -88.8L1140.22 41.52" stroke="#132e65" stroke-width="1.5"></path><path d="M1147.49 -88.8L1285.96 -99.55" stroke="#132e65" stroke-width="1.5"></path><path d="M1147.49 -88.8L1299.85 62.45" stroke="#132e65" stroke-width="1.5"></path><path d="M1147.49 -88.8L996.89 81.11" stroke="#132e65" stroke-width="1.5"></path><path d="M1140.22 41.52L1140.22 41.52" stroke="#132e65" stroke-width="1.5"></path><path d="M1140.22 41.52L1299.85 62.45" stroke="#132e65" stroke-width="1.5"></path><path d="M1140.22 41.52L1285.96 -99.55" stroke="#132e65" stroke-width="1.5"></path><path d="M1140.22 41.52L1088.52 241.47" stroke="#132e65" stroke-width="1.5"></path><path d="M1088.52 241.47L1088.52 241.47" stroke="#132e65" stroke-width="1.5"></path><path d="M1088.52 241.47L1123.72 405.41" stroke="#132e65" stroke-width="1.5"></path><path d="M1088.52 241.47L996.89 81.11" stroke="#132e65" stroke-width="1.5"></path><path d="M1123.72 405.41L1123.72 405.41" stroke="#132e65" stroke-width="1.5"></path><path d="M1123.72 405.41L1296.64 339.2" stroke="#132e65" stroke-width="1.5"></path><path d="M1285.96 -99.55L1285.96 -99.55" stroke="#132e65" stroke-width="1.5"></path><path d="M1285.96 -99.55L1412.5 -75.47" stroke="#132e65" stroke-width="1.5"></path><path d="M1299.85 62.45L1299.85 62.45" stroke="#132e65" stroke-width="1.5"></path><path d="M1299.85 62.45L1390.89 46.13" stroke="#132e65" stroke-width="1.5"></path><path d="M1299.85 62.45L1277.79 207.47" stroke="#132e65" stroke-width="1.5"></path><path d="M1299.85 62.45L1285.96 -99.55" stroke="#132e65" stroke-width="1.5"></path><path d="M1277.79 207.47L1277.79 207.47" stroke="#132e65" stroke-width="1.5"></path><path d="M1277.79 207.47L1296.64 339.2" stroke="#132e65" stroke-width="1.5"></path><path d="M1277.79 207.47L1414.99 191.22" stroke="#132e65" stroke-width="1.5"></path><path d="M1296.64 339.2L1296.64 339.2" stroke="#132e65" stroke-width="1.5"></path><path d="M1296.64 339.2L1408.73 347.77" stroke="#132e65" stroke-width="1.5"></path><path d="M1267.34 558.27L1267.34 558.27" stroke="#132e65" stroke-width="1.5"></path><path d="M1267.34 558.27L1407.33 499.08" stroke="#132e65" stroke-width="1.5"></path><path d="M1267.34 558.27L1123.72 405.41" stroke="#132e65" stroke-width="1.5"></path><path d="M1267.34 558.27L1296.64 339.2" stroke="#132e65" stroke-width="1.5"></path><path d="M1267.34 558.27L1408.73 347.77" stroke="#132e65" stroke-width="1.5"></path><path d="M1267.34 558.27L1551.96 523.09" stroke="#132e65" stroke-width="1.5"></path><path d="M1412.5 -75.47L1412.5 -75.47" stroke="#132e65" stroke-width="1.5"></path><path d="M1412.5 -75.47L1390.89 46.13" stroke="#132e65" stroke-width="1.5"></path><path d="M1412.5 -75.47L1299.85 62.45" stroke="#132e65" stroke-width="1.5"></path><path d="M1412.5 -75.47L1603.36 -92.7" stroke="#132e65" stroke-width="1.5"></path><path d="M1412.5 -75.47L1604.38 66.12" stroke="#132e65" stroke-width="1.5"></path><path d="M1412.5 -75.47L1147.49 -88.8" stroke="#132e65" stroke-width="1.5"></path><path d="M1390.89 46.13L1390.89 46.13" stroke="#132e65" stroke-width="1.5"></path><path d="M1414.99 191.22L1414.99 191.22" stroke="#132e65" stroke-width="1.5"></path><path d="M1414.99 191.22L1538.7 213.15" stroke="#132e65" stroke-width="1.5"></path><path d="M1414.99 191.22L1390.89 46.13" stroke="#132e65" stroke-width="1.5"></path><path d="M1414.99 191.22L1408.73 347.77" stroke="#132e65" stroke-width="1.5"></path><path d="M1414.99 191.22L1299.85 62.45" stroke="#132e65" stroke-width="1.5"></path><path d="M1408.73 347.77L1408.73 347.77" stroke="#132e65" stroke-width="1.5"></path><path d="M1408.73 347.77L1407.33 499.08" stroke="#132e65" stroke-width="1.5"></path><path d="M1407.33 499.08L1407.33 499.08" stroke="#132e65" stroke-width="1.5"></path><path d="M1407.33 499.08L1551.96 523.09" stroke="#132e65" stroke-width="1.5"></path><path d="M1603.36 -92.7L1603.36 -92.7" stroke="#132e65" stroke-width="1.5"></path><path d="M1603.36 -92.7L1604.38 66.12" stroke="#132e65" stroke-width="1.5"></path><path d="M1604.38 66.12L1604.38 66.12" stroke="#132e65" stroke-width="1.5"></path><path d="M1604.38 66.12L1538.7 213.15" stroke="#132e65" stroke-width="1.5"></path><path d="M1604.38 66.12L1390.89 46.13" stroke="#132e65" stroke-width="1.5"></path><path d="M1538.7 213.15L1538.7 213.15" stroke="#132e65" stroke-width="1.5"></path><path d="M1538.7 213.15L1576.81 351.95" stroke="#132e65" stroke-width="1.5"></path><path d="M1576.81 351.95L1576.81 351.95" stroke="#132e65" stroke-width="1.5"></path><path d="M1576.81 351.95L1408.73 347.77" stroke="#132e65" stroke-width="1.5"></path><path d="M1576.81 351.95L1551.96 523.09" stroke="#132e65" stroke-width="1.5"></path><path d="M1576.81 351.95L1407.33 499.08" stroke="#132e65" stroke-width="1.5"></path><path d="M1576.81 351.95L1414.99 191.22" stroke="#132e65" stroke-width="1.5"></path><path d="M1551.96 523.09L1551.96 523.09" stroke="#132e65" stroke-width="1.5"></path><path d="M1551.96 523.09L1408.73 347.77" stroke="#132e65" stroke-width="1.5"></path><circle r="5" cx="-91.54" cy="364.67" fill="#132e65"></circle><circle r="5" cx="-53.18" cy="538.25" fill="#132e65"></circle><circle r="5" cx="77.08" cy="254.56" fill="#132e65"></circle><circle r="5" cx="44.08" cy="390.82" fill="#132e65"></circle><circle r="5" cx="106.8" cy="539.66" fill="#132e65"></circle><circle r="5" cx="240.19" cy="251.56" fill="#132e65"></circle><circle r="5" cx="219.68" cy="375.04" fill="#132e65"></circle><circle r="5" cx="206.94" cy="499.01" fill="#132e65"></circle><circle r="5" cx="381.14" cy="262.02" fill="#132e65"></circle><circle r="5" cx="394.33" cy="399.51" fill="#132e65"></circle><circle r="5" cx="548.18" cy="213.11" fill="#132e65"></circle><circle r="5" cx="504.18" cy="396.69" fill="#132e65"></circle><circle r="5" cx="520.46" cy="513.29" fill="#132e65"></circle><circle r="5" cx="682.7" cy="229.69" fill="#132e65"></circle><circle r="5" cx="648.42" cy="368.38" fill="#132e65"></circle><circle r="5" cx="669.17" cy="542.67" fill="#132e65"></circle><circle r="5" cx="793.2" cy="393.11" fill="#132e65"></circle><circle r="5" cx="843.56" cy="541.25" fill="#132e65"></circle><circle r="5" cx="945" cy="-68.75" fill="#132e65"></circle><circle r="5" cx="996.89" cy="81.11" fill="#132e65"></circle><circle r="5" cx="967.64" cy="195.93" fill="#132e65"></circle><circle r="5" cx="979.09" cy="340.38" fill="#132e65"></circle><circle r="5" cx="940.12" cy="552.25" fill="#132e65"></circle><circle r="5" cx="1147.49" cy="-88.8" fill="#132e65"></circle><circle r="5" cx="1140.22" cy="41.52" fill="#132e65"></circle><circle r="5" cx="1088.52" cy="241.47" fill="#132e65"></circle><circle r="5" cx="1123.72" cy="405.41" fill="#132e65"></circle><circle r="5" cx="1285.96" cy="-99.55" fill="#132e65"></circle><circle r="5" cx="1299.85" cy="62.45" fill="#132e65"></circle><circle r="5" cx="1277.79" cy="207.47" fill="#132e65"></circle><circle r="5" cx="1296.64" cy="339.2" fill="#132e65"></circle><circle r="5" cx="1267.34" cy="558.27" fill="#132e65"></circle><circle r="5" cx="1412.5" cy="-75.47" fill="#132e65"></circle><circle r="5" cx="1390.89" cy="46.13" fill="#132e65"></circle><circle r="5" cx="1414.99" cy="191.22" fill="#132e65"></circle><circle r="5" cx="1408.73" cy="347.77" fill="#132e65"></circle><circle r="5" cx="1407.33" cy="499.08" fill="#132e65"></circle><circle r="5" cx="1603.36" cy="-92.7" fill="#132e65"></circle><circle r="5" cx="1604.38" cy="66.12" fill="#132e65"></circle><circle r="5" cx="1538.7" cy="213.15" fill="#132e65"></circle><circle r="5" cx="1576.81" cy="351.95" fill="#132e65"></circle><circle r="5" cx="1551.96" cy="523.09" fill="#132e65"></circle><path d="M-106.59 516.5L-106.59 516.5" stroke="hsl(228.5, 77.2%, 51.5%)" stroke-width="1.5"></path><path d="M-106.59 516.5L41.4 511.53" stroke="hsl(228.5, 77.2%, 51.5%)" stroke-width="1.5"></path><path d="M-106.59 516.5L-51.86 351.47" stroke="hsl(228.5, 77.2%, 51.5%)" stroke-width="1.5"></path><path d="M-106.59 516.5L37.81 375.7" stroke="hsl(228.5, 77.2%, 51.5%)" stroke-width="1.5"></path><path d="M207.6 360.02L207.6 360.02" stroke="hsl(228.5, 77.2%, 51.5%)" stroke-width="1.5"></path><path d="M207.6 360.02L213.44 500.59" stroke="hsl(228.5, 77.2%, 51.5%)" stroke-width="1.5"></path><path d="M207.6 360.02L37.81 375.7" stroke="hsl(228.5, 77.2%, 51.5%)" stroke-width="1.5"></path><path d="M207.6 360.02L339.39 496.06" stroke="hsl(228.5, 77.2%, 51.5%)" stroke-width="1.5"></path><path d="M207.6 360.02L41.4 511.53" stroke="hsl(228.5, 77.2%, 51.5%)" stroke-width="1.5"></path><path d="M207.6 360.02L-51.86 351.47" stroke="hsl(228.5, 77.2%, 51.5%)" stroke-width="1.5"></path><path d="M521.01 365.56L521.01 365.56" stroke="hsl(228.5, 77.2%, 51.5%)" stroke-width="1.5"></path><path d="M521.01 365.56L680.46 380.72" stroke="hsl(228.5, 77.2%, 51.5%)" stroke-width="1.5"></path><path d="M521.01 365.56L552.7 527.49" stroke="hsl(228.5, 77.2%, 51.5%)" stroke-width="1.5"></path><path d="M521.01 365.56L690.86 257.68" stroke="hsl(228.5, 77.2%, 51.5%)" stroke-width="1.5"></path><path d="M521.01 365.56L339.39 496.06" stroke="hsl(228.5, 77.2%, 51.5%)" stroke-width="1.5"></path><path d="M521.01 365.56L654.63 555.82" stroke="hsl(228.5, 77.2%, 51.5%)" stroke-width="1.5"></path><path d="M521.01 365.56L805.93 368.17" stroke="hsl(228.5, 77.2%, 51.5%)" stroke-width="1.5"></path><path d="M552.7 527.49L552.7 527.49" stroke="hsl(228.5, 77.2%, 51.5%)" stroke-width="1.5"></path><path d="M552.7 527.49L654.63 555.82" stroke="hsl(228.5, 77.2%, 51.5%)" stroke-width="1.5"></path><path d="M552.7 527.49L680.46 380.72" stroke="hsl(228.5, 77.2%, 51.5%)" stroke-width="1.5"></path><path d="M963.99 250.12L963.99 250.12" stroke="hsl(228.5, 77.2%, 51.5%)" stroke-width="1.5"></path><path d="M963.99 250.12L966.28 353.99" stroke="hsl(228.5, 77.2%, 51.5%)" stroke-width="1.5"></path><path d="M963.99 250.12L1098.44 342.88" stroke="hsl(228.5, 77.2%, 51.5%)" stroke-width="1.5"></path><path d="M966.28 353.99L966.28 353.99" stroke="hsl(228.5, 77.2%, 51.5%)" stroke-width="1.5"></path><path d="M966.28 353.99L1098.44 342.88" stroke="hsl(228.5, 77.2%, 51.5%)" stroke-width="1.5"></path><path d="M966.28 353.99L945.9 487.66" stroke="hsl(228.5, 77.2%, 51.5%)" stroke-width="1.5"></path><path d="M966.28 353.99L805.93 368.17" stroke="hsl(228.5, 77.2%, 51.5%)" stroke-width="1.5"></path><path d="M966.28 353.99L1136.51 248.82" stroke="hsl(228.5, 77.2%, 51.5%)" stroke-width="1.5"></path><path d="M1307.5 547.64L1307.5 547.64" stroke="hsl(228.5, 77.2%, 51.5%)" stroke-width="1.5"></path><path d="M1307.5 547.64L1407.67 537.68" stroke="hsl(228.5, 77.2%, 51.5%)" stroke-width="1.5"></path><path d="M1307.5 547.64L1285.27 357.79" stroke="hsl(228.5, 77.2%, 51.5%)" stroke-width="1.5"></path><path d="M1307.5 547.64L1427.87 392.42" stroke="hsl(228.5, 77.2%, 51.5%)" stroke-width="1.5"></path><path d="M1307.5 547.64L1101.73 526.26" stroke="hsl(228.5, 77.2%, 51.5%)" stroke-width="1.5"></path><path d="M1307.5 547.64L1565.85 488.29" stroke="hsl(228.5, 77.2%, 51.5%)" stroke-width="1.5"></path><path d="M-51.86 351.47L-51.86 351.47" stroke="hsl(228.5, 77.2%, 51.5%)" stroke-width="1.5"></path><path d="M-51.86 351.47L37.81 375.7" stroke="hsl(228.5, 77.2%, 51.5%)" stroke-width="1.5"></path><path d="M-51.86 351.47L41.4 511.53" stroke="hsl(228.5, 77.2%, 51.5%)" stroke-width="1.5"></path><path d="M-51.86 351.47L213.44 500.59" stroke="hsl(228.5, 77.2%, 51.5%)" stroke-width="1.5"></path><path d="M-51.86 351.47L339.39 496.06" stroke="hsl(228.5, 77.2%, 51.5%)" stroke-width="1.5"></path><path d="M37.81 375.7L37.81 375.7" stroke="hsl(228.5, 77.2%, 51.5%)" stroke-width="1.5"></path><path d="M41.4 511.53L41.4 511.53" stroke="hsl(228.5, 77.2%, 51.5%)" stroke-width="1.5"></path><path d="M41.4 511.53L37.81 375.7" stroke="hsl(228.5, 77.2%, 51.5%)" stroke-width="1.5"></path><path d="M41.4 511.53L213.44 500.59" stroke="hsl(228.5, 77.2%, 51.5%)" stroke-width="1.5"></path><path d="M213.44 500.59L213.44 500.59" stroke="hsl(228.5, 77.2%, 51.5%)" stroke-width="1.5"></path><path d="M213.44 500.59L339.39 496.06" stroke="hsl(228.5, 77.2%, 51.5%)" stroke-width="1.5"></path><path d="M213.44 500.59L37.81 375.7" stroke="hsl(228.5, 77.2%, 51.5%)" stroke-width="1.5"></path><path d="M213.44 500.59L-106.59 516.5" stroke="hsl(228.5, 77.2%, 51.5%)" stroke-width="1.5"></path><path d="M339.39 496.06L339.39 496.06" stroke="hsl(228.5, 77.2%, 51.5%)" stroke-width="1.5"></path><path d="M339.39 496.06L552.7 527.49" stroke="hsl(228.5, 77.2%, 51.5%)" stroke-width="1.5"></path><path d="M690.86 257.68L690.86 257.68" stroke="hsl(228.5, 77.2%, 51.5%)" stroke-width="1.5"></path><path d="M690.86 257.68L680.46 380.72" stroke="hsl(228.5, 77.2%, 51.5%)" stroke-width="1.5"></path><path d="M690.86 257.68L805.93 368.17" stroke="hsl(228.5, 77.2%, 51.5%)" stroke-width="1.5"></path><path d="M690.86 257.68L963.99 250.12" stroke="hsl(228.5, 77.2%, 51.5%)" stroke-width="1.5"></path><path d="M690.86 257.68L966.28 353.99" stroke="hsl(228.5, 77.2%, 51.5%)" stroke-width="1.5"></path><path d="M680.46 380.72L680.46 380.72" stroke="hsl(228.5, 77.2%, 51.5%)" stroke-width="1.5"></path><path d="M654.63 555.82L654.63 555.82" stroke="hsl(228.5, 77.2%, 51.5%)" stroke-width="1.5"></path><path d="M654.63 555.82L802.92 556.75" stroke="hsl(228.5, 77.2%, 51.5%)" stroke-width="1.5"></path><path d="M654.63 555.82L680.46 380.72" stroke="hsl(228.5, 77.2%, 51.5%)" stroke-width="1.5"></path><path d="M654.63 555.82L805.93 368.17" stroke="hsl(228.5, 77.2%, 51.5%)" stroke-width="1.5"></path><path d="M654.63 555.82L945.9 487.66" stroke="hsl(228.5, 77.2%, 51.5%)" stroke-width="1.5"></path><path d="M805.93 368.17L805.93 368.17" stroke="hsl(228.5, 77.2%, 51.5%)" stroke-width="1.5"></path><path d="M805.93 368.17L680.46 380.72" stroke="hsl(228.5, 77.2%, 51.5%)" stroke-width="1.5"></path><path d="M802.92 556.75L802.92 556.75" stroke="hsl(228.5, 77.2%, 51.5%)" stroke-width="1.5"></path><path d="M802.92 556.75L945.9 487.66" stroke="hsl(228.5, 77.2%, 51.5%)" stroke-width="1.5"></path><path d="M802.92 556.75L805.93 368.17" stroke="hsl(228.5, 77.2%, 51.5%)" stroke-width="1.5"></path><path d="M802.92 556.75L680.46 380.72" stroke="hsl(228.5, 77.2%, 51.5%)" stroke-width="1.5"></path><path d="M802.92 556.75L552.7 527.49" stroke="hsl(228.5, 77.2%, 51.5%)" stroke-width="1.5"></path><path d="M945.9 487.66L945.9 487.66" stroke="hsl(228.5, 77.2%, 51.5%)" stroke-width="1.5"></path><path d="M945.9 487.66L1101.73 526.26" stroke="hsl(228.5, 77.2%, 51.5%)" stroke-width="1.5"></path><path d="M945.9 487.66L805.93 368.17" stroke="hsl(228.5, 77.2%, 51.5%)" stroke-width="1.5"></path><path d="M945.9 487.66L1098.44 342.88" stroke="hsl(228.5, 77.2%, 51.5%)" stroke-width="1.5"></path><path d="M945.9 487.66L963.99 250.12" stroke="hsl(228.5, 77.2%, 51.5%)" stroke-width="1.5"></path><path d="M1136.51 248.82L1136.51 248.82" stroke="hsl(228.5, 77.2%, 51.5%)" stroke-width="1.5"></path><path d="M1136.51 248.82L1098.44 342.88" stroke="hsl(228.5, 77.2%, 51.5%)" stroke-width="1.5"></path><path d="M1136.51 248.82L1241.72 237.93" stroke="hsl(228.5, 77.2%, 51.5%)" stroke-width="1.5"></path><path d="M1136.51 248.82L963.99 250.12" stroke="hsl(228.5, 77.2%, 51.5%)" stroke-width="1.5"></path><path d="M1136.51 248.82L1285.27 357.79" stroke="hsl(228.5, 77.2%, 51.5%)" stroke-width="1.5"></path><path d="M1098.44 342.88L1098.44 342.88" stroke="hsl(228.5, 77.2%, 51.5%)" stroke-width="1.5"></path><path d="M1101.73 526.26L1101.73 526.26" stroke="hsl(228.5, 77.2%, 51.5%)" stroke-width="1.5"></path><path d="M1101.73 526.26L1098.44 342.88" stroke="hsl(228.5, 77.2%, 51.5%)" stroke-width="1.5"></path><path d="M1284.41 -38.24L1284.41 -38.24" stroke="hsl(228.5, 77.2%, 51.5%)" stroke-width="1.5"></path><path d="M1284.41 -38.24L1405.87 -75.18" stroke="hsl(228.5, 77.2%, 51.5%)" stroke-width="1.5"></path><path d="M1251.3 91.17L1251.3 91.17" stroke="hsl(228.5, 77.2%, 51.5%)" stroke-width="1.5"></path><path d="M1251.3 91.17L1284.41 -38.24" stroke="hsl(228.5, 77.2%, 51.5%)" stroke-width="1.5"></path><path d="M1251.3 91.17L1241.72 237.93" stroke="hsl(228.5, 77.2%, 51.5%)" stroke-width="1.5"></path><path d="M1251.3 91.17L1426.06 87.78" stroke="hsl(228.5, 77.2%, 51.5%)" stroke-width="1.5"></path><path d="M1251.3 91.17L1136.51 248.82" stroke="hsl(228.5, 77.2%, 51.5%)" stroke-width="1.5"></path><path d="M1241.72 237.93L1241.72 237.93" stroke="hsl(228.5, 77.2%, 51.5%)" stroke-width="1.5"></path><path d="M1241.72 237.93L1285.27 357.79" stroke="hsl(228.5, 77.2%, 51.5%)" stroke-width="1.5"></path><path d="M1285.27 357.79L1285.27 357.79" stroke="hsl(228.5, 77.2%, 51.5%)" stroke-width="1.5"></path><path d="M1285.27 357.79L1427.87 392.42" stroke="hsl(228.5, 77.2%, 51.5%)" stroke-width="1.5"></path><path d="M1405.87 -75.18L1405.87 -75.18" stroke="hsl(228.5, 77.2%, 51.5%)" stroke-width="1.5"></path><path d="M1405.87 -75.18L1564.69 -76.32" stroke="hsl(228.5, 77.2%, 51.5%)" stroke-width="1.5"></path><path d="M1405.87 -75.18L1426.06 87.78" stroke="hsl(228.5, 77.2%, 51.5%)" stroke-width="1.5"></path><path d="M1405.87 -75.18L1251.3 91.17" stroke="hsl(228.5, 77.2%, 51.5%)" stroke-width="1.5"></path><path d="M1405.87 -75.18L1585.11 89.23" stroke="hsl(228.5, 77.2%, 51.5%)" stroke-width="1.5"></path><path d="M1426.06 87.78L1426.06 87.78" stroke="hsl(228.5, 77.2%, 51.5%)" stroke-width="1.5"></path><path d="M1426.06 87.78L1420.16 243.68" stroke="hsl(228.5, 77.2%, 51.5%)" stroke-width="1.5"></path><path d="M1426.06 87.78L1585.11 89.23" stroke="hsl(228.5, 77.2%, 51.5%)" stroke-width="1.5"></path><path d="M1426.06 87.78L1559.53 216.05" stroke="hsl(228.5, 77.2%, 51.5%)" stroke-width="1.5"></path><path d="M1420.16 243.68L1420.16 243.68" stroke="hsl(228.5, 77.2%, 51.5%)" stroke-width="1.5"></path><path d="M1420.16 243.68L1559.53 216.05" stroke="hsl(228.5, 77.2%, 51.5%)" stroke-width="1.5"></path><path d="M1420.16 243.68L1427.87 392.42" stroke="hsl(228.5, 77.2%, 51.5%)" stroke-width="1.5"></path><path d="M1427.87 392.42L1427.87 392.42" stroke="hsl(228.5, 77.2%, 51.5%)" stroke-width="1.5"></path><path d="M1427.87 392.42L1407.67 537.68" stroke="hsl(228.5, 77.2%, 51.5%)" stroke-width="1.5"></path><path d="M1427.87 392.42L1582.06 346.39" stroke="hsl(228.5, 77.2%, 51.5%)" stroke-width="1.5"></path><path d="M1427.87 392.42L1565.85 488.29" stroke="hsl(228.5, 77.2%, 51.5%)" stroke-width="1.5"></path><path d="M1407.67 537.68L1407.67 537.68" stroke="hsl(228.5, 77.2%, 51.5%)" stroke-width="1.5"></path><path d="M1407.67 537.68L1565.85 488.29" stroke="hsl(228.5, 77.2%, 51.5%)" stroke-width="1.5"></path><path d="M1564.69 -76.32L1564.69 -76.32" stroke="hsl(228.5, 77.2%, 51.5%)" stroke-width="1.5"></path><path d="M1564.69 -76.32L1585.11 89.23" stroke="hsl(228.5, 77.2%, 51.5%)" stroke-width="1.5"></path><path d="M1564.69 -76.32L1426.06 87.78" stroke="hsl(228.5, 77.2%, 51.5%)" stroke-width="1.5"></path><path d="M1585.11 89.23L1585.11 89.23" stroke="hsl(228.5, 77.2%, 51.5%)" stroke-width="1.5"></path><path d="M1585.11 89.23L1559.53 216.05" stroke="hsl(228.5, 77.2%, 51.5%)" stroke-width="1.5"></path><path d="M1585.11 89.23L1420.16 243.68" stroke="hsl(228.5, 77.2%, 51.5%)" stroke-width="1.5"></path><path d="M1559.53 216.05L1559.53 216.05" stroke="hsl(228.5, 77.2%, 51.5%)" stroke-width="1.5"></path><path d="M1559.53 216.05L1582.06 346.39" stroke="hsl(228.5, 77.2%, 51.5%)" stroke-width="1.5"></path><path d="M1582.06 346.39L1582.06 346.39" stroke="hsl(228.5, 77.2%, 51.5%)" stroke-width="1.5"></path><path d="M1582.06 346.39L1565.85 488.29" stroke="hsl(228.5, 77.2%, 51.5%)" stroke-width="1.5"></path><path d="M1582.06 346.39L1420.16 243.68" stroke="hsl(228.5, 77.2%, 51.5%)" stroke-width="1.5"></path><path d="M1582.06 346.39L1585.11 89.23" stroke="hsl(228.5, 77.2%, 51.5%)" stroke-width="1.5"></path><path d="M1582.06 346.39L1407.67 537.68" stroke="hsl(228.5, 77.2%, 51.5%)" stroke-width="1.5"></path><path d="M1565.85 488.29L1565.85 488.29" stroke="hsl(228.5, 77.2%, 51.5%)" stroke-width="1.5"></path><circle r="25" cx="-106.59" cy="516.5" fill="url(&quot;#SvgjsRadialGradient2007&quot;)"></circle><circle r="25" cx="207.6" cy="360.02" fill="url(&quot;#SvgjsRadialGradient2007&quot;)"></circle><circle r="25" cx="521.01" cy="365.56" fill="url(&quot;#SvgjsRadialGradient2007&quot;)"></circle><circle r="25" cx="552.7" cy="527.49" fill="url(&quot;#SvgjsRadialGradient2007&quot;)"></circle><circle r="25" cx="963.99" cy="250.12" fill="url(&quot;#SvgjsRadialGradient2007&quot;)"></circle><circle r="25" cx="966.28" cy="353.99" fill="url(&quot;#SvgjsRadialGradient2007&quot;)"></circle><circle r="25" cx="1307.5" cy="547.64" fill="url(&quot;#SvgjsRadialGradient2007&quot;)"></circle><circle r="5" cx="-51.86" cy="351.47" fill="#8b9ad9"></circle><circle r="5" cx="37.81" cy="375.7" fill="#8b9ad9"></circle><circle r="5" cx="41.4" cy="511.53" fill="#8b9ad9"></circle><circle r="5" cx="213.44" cy="500.59" fill="#8b9ad9"></circle><circle r="5" cx="339.39" cy="496.06" fill="#8b9ad9"></circle><circle r="5" cx="690.86" cy="257.68" fill="#8b9ad9"></circle><circle r="5" cx="680.46" cy="380.72" fill="#8b9ad9"></circle><circle r="5" cx="654.63" cy="555.82" fill="#8b9ad9"></circle><circle r="5" cx="805.93" cy="368.17" fill="#8b9ad9"></circle><circle r="5" cx="802.92" cy="556.75" fill="#8b9ad9"></circle><circle r="5" cx="945.9" cy="487.66" fill="#8b9ad9"></circle><circle r="5" cx="1136.51" cy="248.82" fill="#8b9ad9"></circle><circle r="5" cx="1098.44" cy="342.88" fill="#8b9ad9"></circle><circle r="5" cx="1101.73" cy="526.26" fill="#8b9ad9"></circle><circle r="5" cx="1284.41" cy="-38.24" fill="#8b9ad9"></circle><circle r="5" cx="1251.3" cy="91.17" fill="#8b9ad9"></circle><circle r="5" cx="1241.72" cy="237.93" fill="#8b9ad9"></circle><circle r="5" cx="1285.27" cy="357.79" fill="#8b9ad9"></circle><circle r="5" cx="1405.87" cy="-75.18" fill="#8b9ad9"></circle><circle r="5" cx="1426.06" cy="87.78" fill="#8b9ad9"></circle><circle r="5" cx="1420.16" cy="243.68" fill="#8b9ad9"></circle><circle r="5" cx="1427.87" cy="392.42" fill="#8b9ad9"></circle><circle r="5" cx="1407.67" cy="537.68" fill="#8b9ad9"></circle><circle r="5" cx="1564.69" cy="-76.32" fill="#8b9ad9"></circle><circle r="5" cx="1585.11" cy="89.23" fill="#8b9ad9"></circle><circle r="5" cx="1559.53" cy="216.05" fill="#8b9ad9"></circle><circle r="5" cx="1582.06" cy="346.39" fill="#8b9ad9"></circle><circle r="5" cx="1565.85" cy="488.29" fill="#8b9ad9"></circle></g><defs><mask id="SvgjsMask2005"><rect width="1440" height="400" fill="#ffffff"></rect></mask><radialGradient cx="50%" cy="100%" r="823.65" gradientUnits="userSpaceOnUse" id="SvgjsRadialGradient2006"><stop stop-color="rgba(255, 255, 255, 1)" offset="0"></stop><stop stop-color="rgba(149, 180, 219, 1)" offset="1"></stop></radialGradient><radialGradient id="SvgjsRadialGradient2007"><stop stop-color="#ffffff" offset="0.1"></stop><stop stop-color="#1735b3" offset="0.2"></stop><stop stop-color="rgba(23, 53, 179, 0)" offset="1"></stop></radialGradient></defs></svg>